HIERARCHY
ROOT mixamorig:Hips
{
	OFFSET 0.000000 201.639420 0.000000
	CHANNELS 6 Xposition Yposition Zposition Xrotation Yrotation Zrotation
	JOINT mixamorig:Spine
	{
		OFFSET 0.006200 19.524994 -2.481800
		CHANNELS 3 Xrotation Yrotation Zrotation
		JOINT mixamorig:Spine1
		{
			OFFSET -0.000900 22.835007 -2.825400
			CHANNELS 3 Xrotation Yrotation Zrotation
			JOINT mixamorig:Spine2
			{
				OFFSET -0.020600 26.552490 -3.193300
				CHANNELS 3 Xrotation Yrotation Zrotation
				JOINT mixamorig:Neck
				{
					OFFSET -0.060000 30.701813 1.352200
					CHANNELS 3 Xrotation Yrotation Zrotation
					JOINT mixamorig:Head
					{
						OFFSET -0.087200 22.547607 3.670900
						CHANNELS 3 Xrotation Yrotation Zrotation
						JOINT mixamorig:HeadTop_End
						{
							OFFSET -0.830600 40.355194 7.893500
							CHANNELS 3 Xrotation Yrotation Zrotation
							End Site
							{
								OFFSET 0.000000 30.592346 0.000000
							}
						}
						JOINT mixamorig:RightEye
						{
							OFFSET -6.302100 18.118591 16.197100
							CHANNELS 3 Xrotation Yrotation Zrotation
							End Site
							{
								OFFSET 0.000000 30.592346 0.000000
							}
						}
						JOINT mixamorig:LeftEye
						{
							OFFSET 6.741500 18.382690 16.401899
							CHANNELS 3 Xrotation Yrotation Zrotation
							End Site
							{
								OFFSET 0.000000 30.592346 0.000000
							}
						}
					}
				}
				JOINT mixamorig:LeftShoulder
				{
					OFFSET 11.924900 18.230499 1.425400
					CHANNELS 3 Xrotation Yrotation Zrotation
					JOINT mixamorig:LeftArm
					{
						OFFSET 25.435989 -0.697632 -5.229300
						CHANNELS 3 Xrotation Yrotation Zrotation
						JOINT mixamorig:LeftForeArm
						{
							OFFSET 54.684776 0.000000 0.000000
							CHANNELS 3 Xrotation Yrotation Zrotation
							JOINT mixamorig:LeftHand
							{
								OFFSET 55.098175 0.000000 0.000000
								CHANNELS 3 Xrotation Yrotation Zrotation
								JOINT mixamorig:LeftHandMiddle1
								{
									OFFSET 23.369751 0.000000 0.000000
									CHANNELS 3 Xrotation Yrotation Zrotation
									JOINT mixamorig:LeftHandMiddle2
									{
										OFFSET 6.378677 0.000000 0.000000
										CHANNELS 3 Xrotation Yrotation Zrotation
										JOINT mixamorig:LeftHandMiddle3
										{
											OFFSET 6.148331 0.000000 0.000000
											CHANNELS 3 Xrotation Yrotation Zrotation
											JOINT mixamorig:LeftHandMiddle4
											{
												OFFSET 6.582504 0.000000 0.000000
												CHANNELS 3 Xrotation Yrotation Zrotation
												End Site
												{
													OFFSET -1.168900 6.395691 1.028606
												}
											}
										}
									}
								}
								JOINT mixamorig:LeftHandThumb1
								{
									OFFSET 7.235672 -3.848206 5.434273
									CHANNELS 3 Xrotation Yrotation Zrotation
									JOINT mixamorig:LeftHandThumb2
									{
										OFFSET 6.568451 -3.792297 3.792300
										CHANNELS 3 Xrotation Yrotation Zrotation
										JOINT mixamorig:LeftHandThumb3
										{
											OFFSET 6.063080 -3.500519 3.500518
											CHANNELS 3 Xrotation Yrotation Zrotation
											JOINT mixamorig:LeftHandThumb4
											{
												OFFSET 4.793182 -2.767334 2.767349
												CHANNELS 3 Xrotation Yrotation Zrotation
												End Site
												{
													OFFSET 0.101639 6.054260 1.275483
												}
											}
										}
									}
								}
								JOINT mixamorig:LeftHandIndex1
								{
									OFFSET 23.101074 -0.309540 4.992809
									CHANNELS 3 Xrotation Yrotation Zrotation
									JOINT mixamorig:LeftHandIndex2
									{
										OFFSET 6.226883 0.000000 0.000000
										CHANNELS 3 Xrotation Yrotation Zrotation
										JOINT mixamorig:LeftHandIndex3
										{
											OFFSET 6.094330 0.000000 0.000000
											CHANNELS 3 Xrotation Yrotation Zrotation
											JOINT mixamorig:LeftHandIndex4
											{
												OFFSET 5.482605 0.000000 0.000000
												CHANNELS 3 Xrotation Yrotation Zrotation
												End Site
												{
													OFFSET -1.427902 5.233032 0.797164
												}
											}
										}
									}
								}
								JOINT mixamorig:LeftHandRing1
								{
									OFFSET 22.299240 0.021149 -3.964172
									CHANNELS 3 Xrotation Yrotation Zrotation
									JOINT mixamorig:LeftHandRing2
									{
										OFFSET 6.321869 0.000000 0.000000
										CHANNELS 3 Xrotation Yrotation Zrotation
										JOINT mixamorig:LeftHandRing3
										{
											OFFSET 5.899796 0.000000 0.000000
											CHANNELS 3 Xrotation Yrotation Zrotation
											JOINT mixamorig:LeftHandRing4
											{
												OFFSET 6.517899 0.000000 0.000000
												CHANNELS 3 Xrotation Yrotation Zrotation
												End Site
												{
													OFFSET -1.637299 6.232208 0.980890
												}
											}
										}
									}
								}
								JOINT mixamorig:LeftHandPinky1
								{
									OFFSET 20.463791 -0.302338 -8.562233
									CHANNELS 3 Xrotation Yrotation Zrotation
									JOINT mixamorig:LeftHandPinky2
									{
										OFFSET 6.908646 0.000000 0.000000
										CHANNELS 3 Xrotation Yrotation Zrotation
										JOINT mixamorig:LeftHandPinky3
										{
											OFFSET 4.622849 0.000000 0.000000
											CHANNELS 3 Xrotation Yrotation Zrotation
											JOINT mixamorig:LeftHandPinky4
											{
												OFFSET 5.216080 0.000000 0.000000
												CHANNELS 3 Xrotation Yrotation Zrotation
												End Site
												{
													OFFSET -0.606308 5.116241 0.814926
												}
											}
										}
									}
								}
							}
						}
					}
				}
				JOINT mixamorig:RightShoulder
				{
					OFFSET -12.001300 18.284088 1.348900
					CHANNELS 3 Xrotation Yrotation Zrotation
					JOINT mixamorig:RightArm
					{
						OFFSET -25.308500 -0.751312 -5.164599
						CHANNELS 3 Xrotation Yrotation Zrotation
						JOINT mixamorig:RightForeArm
						{
							OFFSET -54.684429 0.000000 0.000000
							CHANNELS 3 Xrotation Yrotation Zrotation
							JOINT mixamorig:RightHand
							{
								OFFSET -55.150291 0.000000 0.000000
								CHANNELS 3 Xrotation Yrotation Zrotation
								JOINT mixamorig:RightHandMiddle1
								{
									OFFSET -23.317566 0.000000 0.000000
									CHANNELS 3 Xrotation Yrotation Zrotation
									JOINT mixamorig:RightHandMiddle2
									{
										OFFSET -6.378403 0.000000 0.000000
										CHANNELS 3 Xrotation Yrotation Zrotation
										JOINT mixamorig:RightHandMiddle3
										{
											OFFSET -6.148193 0.000000 0.000000
											CHANNELS 3 Xrotation Yrotation Zrotation
											JOINT mixamorig:RightHandMiddle4
											{
												OFFSET -6.583389 0.000000 0.000000
												CHANNELS 3 Xrotation Yrotation Zrotation
												End Site
												{
													OFFSET 1.171692 6.395905 1.029786
												}
											}
										}
									}
								}
								JOINT mixamorig:RightHandThumb1
								{
									OFFSET -7.190521 -3.860474 5.435846
									CHANNELS 3 Xrotation Yrotation Zrotation
									JOINT mixamorig:RightHandThumb2
									{
										OFFSET -6.567429 -3.791718 3.791708
										CHANNELS 3 Xrotation Yrotation Zrotation
										JOINT mixamorig:RightHandThumb3
										{
											OFFSET -6.062469 -3.500153 3.500166
											CHANNELS 3 Xrotation Yrotation Zrotation
											JOINT mixamorig:RightHandThumb4
											{
												OFFSET -4.792618 -2.767029 2.767022
												CHANNELS 3 Xrotation Yrotation Zrotation
												End Site
												{
													OFFSET -0.100327 6.053253 1.276754
												}
											}
										}
									}
								}
								JOINT mixamorig:RightHandIndex1
								{
									OFFSET -23.048981 -0.310791 4.992554
									CHANNELS 3 Xrotation Yrotation Zrotation
									JOINT mixamorig:RightHandIndex2
									{
										OFFSET -6.227539 0.000000 0.000000
										CHANNELS 3 Xrotation Yrotation Zrotation
										JOINT mixamorig:RightHandIndex3
										{
											OFFSET -6.095047 0.000000 0.000000
											CHANNELS 3 Xrotation Yrotation Zrotation
											JOINT mixamorig:RightHandIndex4
											{
												OFFSET -5.484772 0.000000 0.000000
												CHANNELS 3 Xrotation Yrotation Zrotation
												End Site
												{
													OFFSET 1.420593 5.237305 0.797056
												}
											}
										}
									}
								}
								JOINT mixamorig:RightHandRing1
								{
									OFFSET -22.246323 0.020569 -3.963762
									CHANNELS 3 Xrotation Yrotation Zrotation
									JOINT mixamorig:RightHandRing2
									{
										OFFSET -6.322128 0.000000 0.000000
										CHANNELS 3 Xrotation Yrotation Zrotation
										JOINT mixamorig:RightHandRing3
										{
											OFFSET -5.900024 0.000000 0.000000
											CHANNELS 3 Xrotation Yrotation Zrotation
											JOINT mixamorig:RightHandRing4
											{
												OFFSET -6.518356 0.000000 0.000000
												CHANNELS 3 Xrotation Yrotation Zrotation
												End Site
												{
													OFFSET 1.636398 6.232697 0.982186
												}
											}
										}
									}
								}
								JOINT mixamorig:RightHandPinky1
								{
									OFFSET -20.411011 -0.303314 -8.561701
									CHANNELS 3 Xrotation Yrotation Zrotation
									JOINT mixamorig:RightHandPinky2
									{
										OFFSET -6.907349 0.000000 0.000000
										CHANNELS 3 Xrotation Yrotation Zrotation
										JOINT mixamorig:RightHandPinky3
										{
											OFFSET -4.623840 0.000000 0.000000
											CHANNELS 3 Xrotation Yrotation Zrotation
											JOINT mixamorig:RightHandPinky4
											{
												OFFSET -5.218353 0.000000 0.000000
												CHANNELS 3 Xrotation Yrotation Zrotation
												End Site
												{
													OFFSET 0.602097 5.118835 0.816273
												}
											}
										}
									}
								}
							}
						}
					}
				}
			}
		}
	}
	JOINT mixamorig:LeftUpLeg
	{
		OFFSET 18.168400 -13.561905 -0.039000
		CHANNELS 3 Xrotation Yrotation Zrotation
		JOINT mixamorig:LeftLeg
		{
			OFFSET 0.577358 -80.825211 -3.695000
			CHANNELS 3 Xrotation Yrotation Zrotation
			JOINT mixamorig:LeftFoot
			{
				OFFSET -0.577356 -83.370262 -6.520700
				CHANNELS 3 Xrotation Yrotation Zrotation
				JOINT mixamorig:LeftToeBase
				{
					OFFSET 0.750401 -20.798306 25.135401
					CHANNELS 3 Xrotation Yrotation Zrotation
					JOINT mixamorig:LeftToe_End
					{
						OFFSET -0.000500 0.001200 19.917799
						CHANNELS 3 Xrotation Yrotation Zrotation
						End Site
						{
							OFFSET 0.000000 19.917805 0.000000
						}
					}
				}
			}
		}
	}
	JOINT mixamorig:RightUpLeg
	{
		OFFSET -18.162500 -13.585098 -0.041000
		CHANNELS 3 Xrotation Yrotation Zrotation
		JOINT mixamorig:RightLeg
		{
			OFFSET -0.595024 -80.945297 -3.631900
			CHANNELS 3 Xrotation Yrotation Zrotation
			JOINT mixamorig:RightFoot
			{
				OFFSET 0.595024 -83.218193 -6.561200
				CHANNELS 3 Xrotation Yrotation Zrotation
				JOINT mixamorig:RightToeBase
				{
					OFFSET -0.753601 -20.807106 25.115000
					CHANNELS 3 Xrotation Yrotation Zrotation
					JOINT mixamorig:RightToe_End
					{
						OFFSET 0.000299 0.001700 19.918200
						CHANNELS 3 Xrotation Yrotation Zrotation
						End Site
						{
							OFFSET 0.000000 19.918203 0.000000
						}
					}
				}
			}
		}
	}
}
MOTION
Frames: 5
Frame Time: 0.033333
0.408693 188.113586 -2.120007 -6.078877 -42.947222 -4.018902 5.834259 4.555467 -1.225356 11.839511 9.031704 -3.079604 11.839514 9.031708 -3.079606 -4.303148 -1.284329 0.197019 -6.271516 20.437782 -0.378349 -0.000001 -0.000000 0.000000 -0.000001 -0.000000 0.000000 -0.000001 -0.000000 0.000000 1.386273 -0.696151 -7.881041 -14.260095 2.394328 -63.277072 9.871789 -47.524996 5.927241 16.183003 0.922909 18.793757 1.928084 9.687940 -14.537559 -0.430301 -1.553210 -21.882430 0.000003 -0.000005 -0.000004 0.000002 -0.000001 0.000001 9.163450 4.814162 -5.499042 -0.346153 0.039462 0.776380 0.000004 0.000004 0.000014 0.000003 0.000001 0.000000 -0.903794 -6.980830 -3.808575 0.049965 0.803654 -16.414208 0.000004 0.000004 -0.000001 0.000001 0.000003 -0.000003 2.597072 14.902061 -31.342888 -0.590012 -2.700664 -32.012226 0.000000 0.000001 0.000007 -0.000002 0.000001 0.000001 4.166896 18.499772 -34.986162 -0.706465 -5.777581 -39.372940 -0.000001 0.000005 -0.000000 -0.000003 -0.000002 0.000001 1.402681 9.461285 9.791415 1.219678 -24.271333 60.532784 -6.660654 41.858336 8.041338 6.218152 12.320940 11.674132 -0.669267 -2.905334 12.729111 -0.666668 1.815647 30.578890 0.000009 0.000000 -0.000006 0.000002 -0.000001 -0.000002 -8.895607 -4.903235 -0.383700 7.881442 -19.203046 -2.858467 0.000009 0.000001 0.000021 0.000002 0.000000 -0.000001 -1.070259 -1.213933 4.525764 0.124607 -1.113883 16.932261 0.000002 -0.000001 -0.000008 0.000001 -0.000003 -0.000002 2.403686 -7.411449 21.762537 -1.010143 3.770932 37.430919 0.000001 -0.000000 0.000003 -0.000001 0.000001 0.000001 3.486638 -10.060467 24.324385 -1.473003 7.880290 41.092658 -0.000006 -0.000002 0.000003 -0.000001 0.000001 -0.000002 -28.717127 5.477803 13.777444 35.017560 -14.069957 -0.178236 -3.700242 0.646163 -7.941535 -2.319085 -3.208618 0.802958 0.000000 0.000000 0.000000 -7.184893 -13.141823 -15.792787 34.240729 -9.291508 -0.401199 -19.371082 -3.704854 16.552977 -1.786606 -0.361866 0.339082 0.000000 -0.000000 0.000000 
1.210710 187.943344 -2.273125 -4.797327 -43.074936 -3.360916 5.838593 4.239759 -1.214265 11.832627 8.397823 -3.031932 11.832634 8.397831 -3.031937 -4.913012 -0.751258 0.375590 -5.477698 20.926718 -0.681183 -0.000001 -0.000000 -0.000000 -0.000001 -0.000000 -0.000000 -0.000001 -0.000000 -0.000000 1.354246 -0.089838 -8.110891 -13.725663 3.459248 -62.055226 9.763527 -49.774915 6.759845 15.786490 1.128065 17.436194 1.819169 9.246480 -14.605470 -0.417889 -1.517464 -21.531579 -0.000005 -0.000003 -0.000007 0.000002 0.000000 -0.000001 8.081602 4.053804 -5.453723 -0.302471 0.169501 0.819356 0.000005 0.000001 0.000011 0.000003 -0.000000 -0.000000 -0.969965 -6.834488 -4.211493 0.042635 0.779905 -16.617316 -0.000002 0.000000 0.000004 -0.000002 0.000003 -0.000005 2.433216 14.606358 -30.838082 -0.562649 -2.665930 -31.308914 -0.000001 0.000001 0.000003 -0.000001 0.000000 0.000002 4.038891 18.419260 -34.095259 -0.698009 -5.767918 -38.769189 0.000004 0.000004 -0.000007 -0.000006 -0.000001 0.000000 1.366686 8.748976 9.888542 0.208406 -22.114611 58.193669 -5.029322 43.011364 8.210054 5.410662 11.579384 11.098638 -0.693403 -2.799720 12.819354 -0.631617 1.750539 29.747922 0.000010 -0.000000 -0.000008 0.000001 -0.000000 -0.000003 -9.227980 -4.224671 -0.572890 7.537557 -18.430296 -2.848912 0.000011 0.000000 0.000022 -0.000002 -0.000000 0.000001 -1.138433 -0.946879 4.814119 0.121379 -1.103358 17.042686 0.000001 -0.000000 -0.000008 0.000001 -0.000001 -0.000002 2.425168 -7.475461 21.662467 -0.953886 3.699879 36.397156 -0.000002 -0.000000 -0.000002 -0.000001 0.000001 0.000003 3.632222 -10.358937 23.919037 -1.434116 7.835405 40.319795 -0.000009 -0.000001 0.000007 0.000000 0.000000 0.000000 -29.984643 4.680780 13.455096 35.419636 -13.255075 0.060724 -3.594942 0.698648 -8.083525 -2.384006 -3.109763 0.873781 0.000000 0.000001 0.000000 -8.526017 -12.375317 -15.582284 34.799954 -9.855104 -0.338074 -19.242040 -3.780631 16.664881 -1.558063 -0.220492 0.330590 -0.000000 0.000002 0.000000 
3.738222 186.096283 -3.025323 -1.635825 -43.832391 -1.234063 5.970869 3.772805 -1.164934 12.070216 7.450344 -2.868739 12.070220 7.450336 -2.868739 -6.625835 0.278862 0.534430 -5.323586 21.857507 -2.241405 0.000001 0.000000 -0.000000 0.000001 0.000000 -0.000000 0.000001 0.000000 -0.000000 1.254048 0.476461 -8.843574 -12.886178 5.695527 -60.518659 9.044789 -55.019824 9.216791 15.239486 1.012051 16.038374 1.569731 8.266917 -14.850371 -0.394297 -1.448055 -20.851072 -0.000003 -0.000004 -0.000004 0.000002 0.000000 0.000000 5.574627 2.005888 -5.811595 -0.248831 0.363658 0.900192 0.000006 0.000001 0.000009 0.000001 0.000001 -0.000003 -1.159392 -6.582618 -5.187749 0.023175 0.716681 -17.157632 0.000005 -0.000001 0.000004 -0.000002 -0.000002 0.000003 2.129097 13.956640 -29.832607 -0.516640 -2.590836 -29.852865 0.000000 0.000002 0.000007 -0.000003 0.000001 0.000003 3.863421 18.274653 -32.260203 -0.680921 -5.747985 -37.532310 -0.000005 -0.000000 -0.000005 -0.000006 -0.000001 0.000000 1.317158 7.246281 9.792929 -0.794677 -20.014225 54.861637 -2.297455 48.382434 6.350317 5.736510 9.947418 10.190250 -0.760670 -2.566130 13.069453 -0.555160 1.610569 27.974228 0.000010 -0.000000 -0.000006 0.000002 0.000000 -0.000001 -10.129970 -2.544302 -0.817418 6.738982 -16.636901 -2.811001 0.000008 0.000001 0.000021 0.000001 -0.000001 0.000001 -1.332278 -0.269173 5.498742 0.112789 -1.075310 17.337867 0.000001 0.000002 -0.000006 0.000001 0.000000 -0.000001 2.486324 -7.662922 21.505778 -0.843095 3.542537 34.177522 0.000000 0.000002 0.000000 -0.000001 0.000000 0.000001 4.010464 -11.106944 23.107906 -1.353299 7.738034 38.674549 -0.000003 0.000000 0.000005 -0.000001 -0.000001 -0.000003 -34.650468 3.462063 12.928413 38.674177 -11.740955 0.187001 -4.131807 0.744342 -7.856908 -1.756532 -2.800930 -0.376480 -0.000000 0.000001 -0.000000 -14.039643 -10.351785 -16.454745 39.445715 -9.952044 0.090605 -20.291502 -4.018760 16.956961 -1.437885 -0.279059 0.292042 0.000000 0.000002 0.000000 
7.388840 181.768906 -4.109341 4.158243 -45.679342 2.467591 6.126123 3.426640 -1.073890 12.359186 6.726895 -2.643554 12.359176 6.726902 -2.643554 -9.025083 1.865885 0.511143 -6.524902 23.448171 -4.528358 0.000001 -0.000000 -0.000000 0.000001 -0.000000 -0.000000 0.000001 -0.000000 -0.000000 1.120616 0.935646 -10.245651 -11.476405 8.992165 -59.462910 8.297862 -63.070056 12.557626 14.918576 -1.158090 17.394584 1.214557 6.829124 -15.222188 -0.361006 -1.346395 -19.859048 -0.000003 -0.000005 -0.000005 0.000001 -0.000001 0.000001 2.061169 -1.175824 -6.503510 -0.170644 0.642687 1.018730 0.000007 0.000001 0.000011 0.000003 -0.000003 0.000002 -1.442693 -6.205044 -6.622020 -0.003813 0.628281 -17.955671 0.000004 0.000003 0.000002 -0.000000 -0.000001 -0.000001 1.757924 12.982152 -28.376006 -0.452977 -2.478711 -27.724860 0.000001 0.000001 0.000003 -0.000003 0.000002 0.000001 3.661709 18.041970 -29.590732 -0.656932 -5.718240 -35.725141 -0.000002 0.000003 -0.000005 -0.000001 -0.000001 -0.000001 1.240031 5.160746 9.595073 -0.941622 -19.066169 51.560630 2.012520 58.182099 2.020900 7.679733 9.794087 5.958817 -0.857260 -2.223274 13.438344 -0.451203 1.401763 25.378425 0.000008 0.000001 -0.000006 0.000002 0.000001 0.000000 -11.374629 -0.060161 -1.071307 5.574601 -14.006017 -2.713615 0.000009 0.000000 0.000024 0.000001 -0.000001 0.000001 -1.644354 0.719795 6.510978 0.100440 -1.034623 17.766835 0.000001 0.000002 -0.000005 0.000001 0.000001 -0.000002 2.576990 -7.937866 21.281481 -0.694934 3.302809 30.929340 -0.000000 -0.000001 0.000001 -0.000001 -0.000000 0.000002 4.527663 -12.223594 21.930930 -1.240033 7.591273 36.267915 -0.000005 -0.000004 0.000005 -0.000001 0.000001 0.000001 -43.788968 2.849964 14.532500 45.470960 -11.302605 -1.200415 -5.637891 0.687851 -6.434971 -1.304099 -2.302202 -0.753962 -0.000000 -0.000001 -0.000000 -23.874877 -7.490294 -17.848266 47.788446 -8.168429 1.149575 -22.575228 -4.393539 16.765135 -1.380158 -0.493230 0.238541 -0.000000 -0.000000 0.000000 
11.859909 174.323502 -5.422300 11.873594 -47.811959 7.308363 6.400610 3.131758 -0.835605 12.888465 6.061603 -2.208261 12.888471 6.061596 -2.208253 -11.297128 3.898580 0.162046 -9.502065 25.511913 -6.416004 -0.000001 0.000000 0.000000 -0.000001 0.000000 0.000000 -0.000001 0.000000 0.000000 1.011482 1.412396 -12.462942 -8.792980 13.362570 -59.743603 9.993392 -73.027058 17.662774 15.642293 -6.479328 23.636244 0.808137 5.112914 -15.695303 -0.323066 -1.226817 -18.697388 -0.000002 -0.000004 -0.000004 -0.000000 -0.000002 0.000002 -1.898539 -5.251358 -7.627390 -0.089717 0.957085 1.155661 0.000006 0.000005 0.000008 0.000004 0.000001 -0.000000 -1.794828 -5.750336 -8.345213 -0.036746 0.519636 -18.924501 0.000001 0.000002 0.000002 -0.000002 0.000002 -0.000005 1.435877 11.795703 -26.678309 -0.382940 -2.343246 -25.211745 -0.000003 0.000000 0.000004 -0.000003 -0.000002 0.000002 3.522980 17.747307 -26.459733 -0.629574 -5.682126 -33.593558 0.000000 0.000002 -0.000001 -0.000001 -0.000001 -0.000000 1.112013 2.622017 9.595300 0.453514 -19.170958 49.831032 9.552902 69.810913 -5.455073 10.967303 13.201162 -4.435281 -0.971840 -1.814090 13.890137 -0.340610 1.148806 22.302255 0.000008 -0.000000 -0.000007 -0.000001 -0.000002 0.000000 -12.767573 2.944359 -1.197567 4.190105 -10.859671 -2.525959 0.000010 -0.000001 0.000028 -0.000001 0.000000 -0.000006 -2.065054 1.900638 7.738936 0.085529 -0.984863 18.289370 0.000000 -0.000001 -0.000005 -0.000000 -0.000001 0.000001 2.691778 -8.270134 21.030871 -0.540807 3.007029 27.078017 0.000002 -0.000002 -0.000000 -0.000000 0.000001 0.000000 5.093486 -13.593382 20.555241 -1.115599 7.410793 33.417414 -0.000003 -0.000001 0.000006 -0.000001 0.000001 -0.000001 -56.147430 1.298795 17.068079 55.532867 -11.013913 -2.499195 -8.120397 0.612004 -4.944884 -0.800814 -1.653046 -0.843627 -0.000000 -0.000002 -0.000000 -36.425634 -4.075637 -19.094052 58.629183 -4.812714 2.666119 -25.669644 -4.868718 15.948937 -1.043576 -0.543391 0.200071 -0.000000 0.000000 0.000000 
